<svg width="65" height="65" viewBox="0 0 65 65" fill="none" xmlns="http://www.w3.org/2000/svg">
<circle cx="32.5" cy="32.5" r="32.5" fill="#E7EBFC"/>
<rect opacity="0.01" x="48.5" y="16.5" width="32" height="32" transform="rotate(90 48.5 16.5)" fill="#191919"/>
<path d="M41.8335 31.1667L26.0202 31.1667L30.8602 25.3534C31.3314 24.7864 31.2538 23.9447 30.6868 23.4734C30.1198 23.0021 29.2781 23.0797 28.8068 23.6467L22.1402 31.6467C22.0953 31.7104 22.0552 31.7772 22.0202 31.8467C22.0202 31.9134 22.0202 31.9534 21.9268 32.0201C21.8664 32.173 21.8348 32.3357 21.8335 32.5001C21.8348 32.6645 21.8664 32.8272 21.9268 32.9801C21.9268 33.0467 21.9268 33.0867 22.0202 33.1534C22.0552 33.2229 22.0953 33.2898 22.1402 33.3534L28.8068 41.3534C29.0606 41.6581 29.4369 41.8341 29.8335 41.8334C30.145 41.834 30.4469 41.7255 30.6868 41.5267C30.9595 41.3007 31.131 40.9754 31.1635 40.6227C31.1961 40.27 31.0869 39.9188 30.8602 39.6467L26.0202 33.8334L41.8335 33.8334C42.5699 33.8334 43.1668 33.2365 43.1668 32.5001C43.1668 31.7637 42.5699 31.1667 41.8335 31.1667Z" fill="#191919"/>
</svg>
