<svg width="65" height="65" viewBox="0 0 65 65" fill="none" xmlns="http://www.w3.org/2000/svg">
<circle cx="32.5" cy="32.5" r="32.5" fill="#E7EBFC"/>
<rect opacity="0.01" x="16.5" y="48.5" width="32" height="32" transform="rotate(-90 16.5 48.5)" fill="#191919"/>
<path d="M23.1665 33.8333L38.9798 33.8333L34.1398 39.6466C33.6686 40.2136 33.7462 41.0553 34.3132 41.5266C34.8802 41.9979 35.7219 41.9203 36.1932 41.3533L42.8598 33.3533C42.9047 33.2896 42.9448 33.2228 42.9798 33.1533C42.9798 33.0866 42.9798 33.0466 43.0732 32.9799C43.1336 32.827 43.1652 32.6643 43.1665 32.4999C43.1652 32.3355 43.1336 32.1728 43.0732 32.0199C43.0732 31.9533 43.0732 31.9133 42.9798 31.8466C42.9448 31.7771 42.9047 31.7102 42.8598 31.6466L36.1932 23.6466C35.9394 23.3419 35.5631 23.1659 35.1665 23.1666C34.855 23.166 34.5531 23.2745 34.3132 23.4733C34.0405 23.6993 33.869 24.0246 33.8365 24.3773C33.8039 24.73 33.9131 25.0812 34.1398 25.3533L38.9798 31.1666L23.1665 31.1666C22.4301 31.1666 21.8332 31.7635 21.8332 32.4999C21.8332 33.2363 22.4301 33.8333 23.1665 33.8333Z" fill="#191919"/>
</svg>
